<mxfile host="app.diagrams.net" modified="2024-05-16T11:55:06.459Z" agent="Mozilla/5.0 (Macintosh; Intel Mac OS X 10_15_7) AppleWebKit/605.1.15 (KHTML, like Gecko) Version/17.1.2 Safari/605.1.15" version="24.4.2" etag="VGjgSpGyTCIgvVpPiNTq" type="github">
  <diagram name="第 1 页" id="JUBmRAn-xgZ5UwaZT_6N">
    <mxGraphModel>
      <root>
        <mxCell id="0" />
        <mxCell id="1" parent="0" />
      </root>
    </mxGraphModel>
  </diagram>
</mxfile>
